<?xml version="1.0" encoding="iso-8859-1"?>
<!-- Generator: Adobe Illustrator 19.0.0, SVG Export Plug-In . SVG Version: 6.00 Build 0)  -->
<svg version="1.1" id="Capa_1" xmlns="http://www.w3.org/2000/svg" xmlns:xlink="http://www.w3.org/1999/xlink" x="0px" y="0px"
	 viewBox="0 0 294.843 294.843" style="enable-background:new 0 0 294.843 294.843;" xml:space="preserve">
<g>
	<path d="M167.619,160.134c-2.37-2.319-6.168-2.277-8.485,0.09c-2.318,2.368-2.277,6.167,0.09,8.485l47.236,46.236
		c1.168,1.143,2.683,1.712,4.197,1.712c1.557,0,3.113-0.603,4.288-1.803c2.318-2.368,2.277-6.167-0.09-8.485L167.619,160.134z"/>
	<path d="M125.178,133.663c1.171,1.171,2.707,1.757,4.243,1.757s3.071-0.586,4.243-1.757c2.343-2.343,2.343-6.142,0-8.485
		L88.428,79.942c-2.343-2.343-6.143-2.343-8.485,0c-2.343,2.343-2.343,6.142,0,8.485L125.178,133.663z"/>
	<path d="M214.9,79.942c-2.343-2.343-6.143-2.343-8.485,0L79.942,206.415c-2.343,2.343-2.343,6.142,0,8.485
		c1.171,1.171,2.707,1.757,4.243,1.757s3.071-0.586,4.243-1.757L214.9,88.428C217.243,86.084,217.243,82.286,214.9,79.942z"/>
</g>
<g>
</g>
<g>
</g>
<g>
</g>
<g>
</g>
<g>
</g>
<g>
</g>
<g>
</g>
<g>
</g>
<g>
</g>
<g>
</g>
<g>
</g>
<g>
</g>
<g>
</g>
<g>
</g>
<g>
</g>
</svg>
