<?xml version="1.0" encoding="iso-8859-1"?>
<!-- Generator: Adobe Illustrator 19.0.0, SVG Export Plug-In . SVG Version: 6.00 Build 0)  -->
<svg version="1.1" id="Capa_1" xmlns="http://www.w3.org/2000/svg" xmlns:xlink="http://www.w3.org/1999/xlink" x="0px" y="0px"
	 viewBox="0 0 512 512" style="enable-background:new 0 0 512 512;" xml:space="preserve">
<g>
	<g>
		<g>
			<circle cx="224" cy="138.667" r="32"/>
			<path d="M437.333,245.333c5.896,0,10.667-4.771,10.667-10.667V192h32c5.896,0,10.667-4.771,10.667-10.667v-42.667
				c0-5.896-4.771-10.667-10.667-10.667h-53.333V85.333h15.5c4.406,0,8.354-2.708,9.948-6.823c1.594-4.104,0.49-8.771-2.771-11.729
				C402,23.719,340.917,0,277.333,0c-141.156,0-256,114.844-256,256s114.844,256,256,256c63.583,0,124.667-23.719,172.01-66.781
				c3.26-2.958,4.365-7.625,2.771-11.729c-1.594-4.115-5.542-6.823-9.948-6.823h-15.5v-21.333H480
				c5.896,0,10.667-4.771,10.667-10.667v-64c0-5.896-4.771-10.667-10.667-10.667h-74.667v-53.333H43.207
				c-0.161-3.561-0.54-7.066-0.54-10.667s0.379-7.105,0.54-10.667H437.333z M341.333,128H384c5.896,0,10.667,4.771,10.667,10.667
				c0,5.896-4.771,10.667-10.667,10.667h-42.667c-5.896,0-10.667-4.771-10.667-10.667C330.667,132.771,335.438,128,341.333,128z
				 M224,64c41.167,0,74.667,33.5,74.667,74.667c0,41.167-33.5,74.667-74.667,74.667s-74.667-33.5-74.667-74.667
				C149.333,97.5,182.833,64,224,64z M96,128h21.333c5.896,0,10.667,4.771,10.667,10.667c0,5.896-4.771,10.667-10.667,10.667H96
				c-5.896,0-10.667-4.771-10.667-10.667C85.333,132.771,90.104,128,96,128z M330.667,320h32c5.896,0,10.667,4.771,10.667,10.667
				c0,5.896-4.771,10.667-10.667,10.667h-32c-5.896,0-10.667-4.771-10.667-10.667C320,324.771,324.771,320,330.667,320z
				 M138.667,384H96c-5.896,0-10.667-4.771-10.667-10.667c0-5.896,4.771-10.667,10.667-10.667h42.667
				c5.896,0,10.667,4.771,10.667,10.667C149.333,379.229,144.563,384,138.667,384z M85.333,298.667h96
				c5.896,0,10.667,4.771,10.667,10.667c0,5.896-4.771,10.667-10.667,10.667h-96c-5.896,0-10.667-4.771-10.667-10.667
				C74.667,303.438,79.438,298.667,85.333,298.667z"/>
		</g>
	</g>
</g>
<g>
</g>
<g>
</g>
<g>
</g>
<g>
</g>
<g>
</g>
<g>
</g>
<g>
</g>
<g>
</g>
<g>
</g>
<g>
</g>
<g>
</g>
<g>
</g>
<g>
</g>
<g>
</g>
<g>
</g>
</svg>
