<svg xmlns="http://www.w3.org/2000/svg" xmlns:sketch="http://www.bohemiancoding.com/sketch/ns" xmlns:xlink="http://www.w3.org/1999/xlink" height="39.99270186809662" version="1.1" width="157.70803017265416" style=""><rect id="backgroundrect" width="100%" height="100%" x="0" y="0" fill="none" stroke="none"/>
  <title/>
  <desc/>
  <defs/>
  
<g class="currentLayer" style=""><title>Layer 1</title><g fill="none" fill-rule="evenodd" id="Page-1" stroke="none" stroke-width="1" class="selected" transform="rotate(90 78.39415740966798,21.722625732421882) ">
    <g id="star-wars-copy">
      <g id="lightsaber-darth-vader">
        <path d="M98.39415842294693,-38.27737432718277 L94.39415842294693,-38.27737432718277 L94.39415842294693,-42.27737432718277 L98.39415842294693,-42.27737432718277 L98.39415842294693,-38.27737432718277 z" fill="#BEBEBE" id="Fill-3"/>
        <path d="M98.39415842294693,-26.27737432718277 L94.39415842294693,-26.27737432718277 L94.39415842294693,-30.27737432718277 L98.39415842294693,-30.27737432718277 L98.39415842294693,-26.27737432718277 z" fill="#BEBEBE" id="Fill-5"/>
        <path d="M90.39415842294693,97.72262567281723 L66.39415842294693,97.72262567281723 L66.39415842294693,93.72262567281723 L90.39415842294693,93.72262567281723 L90.39415842294693,97.72262567281723 z" fill="#BEBEBE" id="Fill-6"/>
        <path d="M90.39415842294693,25.72262567281723 L66.39415842294693,25.72262567281723 L66.39415842294693,17.72262567281723 L90.39415842294693,17.72262567281723 L90.39415842294693,25.72262567281723 z" fill="#BEBEBE" id="Fill-7"/>
        <path d="M90.39415842294693,-6.27737432718277 L66.39415842294693,-6.27737432718277 L66.39415842294693,-22.27737432718277 L90.39415842294693,-22.27737432718277 L90.39415842294693,-6.27737432718277 z" fill="#BEBEBE" id="Fill-8"/>
        <path d="M94.39415842294693,17.72262567281723 L62.39415842294693,17.72262567281723 L62.39415842294693,-6.27737432718277 L94.39415842294693,-6.27737432718277 L94.39415842294693,17.72262567281723 z" fill="#676767" id="Fill-9"/>
        <path d="M94.39415842294693,-22.27737432718277 L62.39415842294693,-22.27737432718277 L62.39415842294693,-38.27737432718277 L94.39415842294693,-54.27737432718277 L94.39415842294693,-22.27737432718277 z" fill="#676767" id="Fill-10"/>
        <path d="M58.39415842294693,13.72262567281723 L62.39415842294693,13.72262567281723 L62.39415842294693,-2.2773743271827698 L58.39415842294693,-2.2773743271827698 L58.39415842294693,13.72262567281723 z" fill="#BEBEBE" id="Fill-11"/>
        <path d="M90.39415842294693,93.72262567281723 L66.39415842294693,93.72262567281723 L66.39415842294693,25.72262567281723 L90.39415842294693,25.72262567281723 L90.39415842294693,93.72262567281723 z" fill="#BEBEBE" id="Fill-12"/>
        <path d="M70.39415842294693,93.72262567281723 L62.39415842294693,93.72262567281723 L62.39415842294693,25.72262567281723 L70.39415842294693,25.72262567281723 L70.39415842294693,93.72262567281723 z" fill="#676767" id="Fill-13"/>
        <path d="M94.39415842294693,93.72262567281723 L86.39415842294693,93.72262567281723 L86.39415842294693,25.72262567281723 L94.39415842294693,25.72262567281723 L94.39415842294693,93.72262567281723 z" fill="#676767" id="Fill-14"/>
        <path d="M82.39415842294693,93.72262567281723 L74.39415842294693,93.72262567281723 L74.39415842294693,25.72262567281723 L82.39415842294693,25.72262567281723 L82.39415842294693,93.72262567281723 z" fill="#676767" id="Fill-15"/>
      </g>
    </g>
  </g></g></svg>