<svg xmlns="http://www.w3.org/2000/svg" xmlns:sketch="http://www.bohemiancoding.com/sketch/ns" xmlns:xlink="http://www.w3.org/1999/xlink" height="44.60139866669002" version="1.1" width="162"><rect id="backgroundrect" width="100%" height="100%" x="0" y="0" fill="none" stroke="none" class="" style=""/>
  <title/>
  <desc/>
  <defs/>
  
<g class="currentLayer" style=""><title>Layer 1</title><g fill="none" fill-rule="evenodd" id="Page-1" stroke="none" stroke-width="1" class="" transform="rotate(90 80.83916473388673,21.426595687866218) ">
    <g id="star-wars-copy">
      <g id="lightsaber-luke-anh">
        <path d="M96.83916115760803,97.42658984661102 L72.83916115760803,97.42658984661102 L72.83916115760803,25.426589846611023 L96.83916115760803,25.426589846611023 L96.83916115760803,97.42658984661102 z" fill="#BEBEBE" id="Fill-43"/>
        <path d="M96.83916115760803,-22.573410153388977 L76.83916115760803,-22.573410153388977 L76.83916115760803,-46.57341015338898 L96.83916115760803,-46.57341015338898 L96.83916115760803,-22.573410153388977 z" fill="#8C8C8C" id="Fill-44"/>
        <path d="M100.83916115760803,25.426589846611023 L68.83916115760803,25.426589846611023 L68.83916115760803,-22.573410153388977 L100.83916115760803,-22.573410153388977 L100.83916115760803,25.426589846611023 z" fill="#BEBEBE" id="Fill-45"/>
        <path d="M76.83916115760803,93.42658984661102 L68.83916115760803,93.42658984661102 L68.83916115760803,25.426589846611023 L76.83916115760803,25.426589846611023 L76.83916115760803,93.42658984661102 z" fill="#8C8C8C" id="Fill-46"/>
        <path d="M100.83916115760803,93.42658984661102 L92.83916115760803,93.42658984661102 L92.83916115760803,25.426589846611023 L100.83916115760803,25.426589846611023 L100.83916115760803,93.42658984661102 z" fill="#8C8C8C" id="Fill-47"/>
        <path d="M88.83916115760803,93.42658984661102 L80.83916115760803,93.42658984661102 L80.83916115760803,25.426589846611023 L88.83916115760803,25.426589846611023 L88.83916115760803,93.42658984661102 z" fill="#8C8C8C" id="Fill-48"/>
        <path d="M64.83916115760803,21.426589846611023 L68.83916115760803,21.426589846611023 L68.83916115760803,5.426589846611023 L64.83916115760803,5.426589846611023 L64.83916115760803,21.426589846611023 z" fill="#CBCBCB" id="Fill-49"/>
        <path d="M64.83916115760803,-22.573410153388977 L68.83916115760803,-22.573410153388977 L68.83916115760803,-30.573410153388977 L64.83916115760803,-30.573410153388977 L64.83916115760803,-22.573410153388977 z" fill="#BEBEBE" id="Fill-50"/>
        <path d="M72.83916115760803,-34.57341015338898 L64.83916115760803,-34.57341015338898 C62.63916115760799,-34.57341015338898 60.83916115760803,-36.37341015338916 60.83916115760803,-38.57341015338898 C60.83916115760803,-40.773410153388795 62.63916115760799,-42.57341015338898 64.83916115760803,-42.57341015338898 L72.83916115760803,-42.57341015338898 C75.03916115760808,-42.57341015338898 76.83916115760803,-40.773410153388795 76.83916115760803,-38.57341015338898 C76.83916115760803,-36.37341015338916 75.03916115760808,-34.57341015338898 72.83916115760803,-34.57341015338898 " fill="#BEBEBE" id="Fill-51"/>
        <path d="M68.83916115760803,-18.573410153388977 L68.83916115760803,-54.57341015338898 L68.83916115760803,-54.57341015338898 C73.74316115760803,-54.57341015338898 78.22316115760805,-51.80141015338904 80.41516115760805,-47.41741015338903 L84.83916115760803,-38.57341015338898 L100.83916115760803,-30.573410153388977 L100.83916115760803,-18.573410153388977 L68.83916115760803,-18.573410153388977 z" fill="#BEBEBE" id="Fill-52"/>
        <path d="M92.83916115760803,-26.573410153388977 C92.83916115760803,-24.365410153388893 91.047161157608,-22.573410153388977 88.83916115760803,-22.573410153388977 C86.63116115760806,-22.573410153388977 84.83916115760803,-24.365410153388893 84.83916115760803,-26.573410153388977 C84.83916115760803,-28.78141015338906 86.63116115760806,-30.573410153388977 88.83916115760803,-30.573410153388977 C91.047161157608,-30.573410153388977 92.83916115760803,-28.78141015338906 92.83916115760803,-26.573410153388977 " fill="#8C8C8C" id="Fill-53"/>
      </g>
    </g>
  </g></g></svg>